# xmcd CD database file
#
# Track frame offsets:
#	150
#	450
#	21003
#	48300
#	70793
#	90179
#	111893
#	140499
#	171454
#	195141
#	212901
#	234069
#	251208
#
# Disc length: 3590 seconds
#
# Revision: 0
# Processed by: cddbd v1.5.2PL0 Copyright (c) Steve Scherf et al.
# Submitted via: CDex 1.51
#
DISCID=a00e040d
DTITLE=Saul Rayo - Rhythm and Groove
DYEAR=2000
DGENRE=Rhythmic Soul
TTITLE0=John's Grand Fugue
TTITLE1=Heal Your Soul
TTITLE2=Take Me Down
TTITLE3=Kosovo: The Rain Song
TTITLE4=Grindin
TTITLE5=Reform School Girl
TTITLE6=Got to Move
TTITLE7=River
TTITLE8=Make Your Belly Move
TTITLE9=Paradise
TTITLE10=Milk the Bloom
TTITLE11=Lightning
TTITLE12=Livin a Good Life
EXTD=YEAR: 2000
EXTT0=
EXTT1=
EXTT2=
EXTT3=
EXTT4=
EXTT5=
EXTT6=
EXTT7=
EXTT8=
EXTT9=
EXTT10=
EXTT11=
EXTT12=
PLAYORDER=
